<?xml version="1.0" standalone="no"?>
<!DOCTYPE svg PUBLIC "-//W3C//DTD SVG 20010904//EN"
 "http://www.w3.org/TR/2001/REC-SVG-20010904/DTD/svg10.dtd">
<svg version="1.0" xmlns="http://www.w3.org/2000/svg"
 width="200.000000pt" height="200.000000pt" viewBox="0 0 200.000000 200.000000"
 preserveAspectRatio="xMidYMid meet">
<metadata>
Created by potrace 1.11, written by Peter Selinger 2001-2013
</metadata>
<g transform="translate(0.000000,200.000000) scale(0.100000,-0.100000)"
fill="#000000" stroke="none">
<path d="M980 1752 c-21 -7 -649 -368 -660 -379 -7 -7 -8 -770 -1 -781 5 -8
162 -103 291 -175 19 -11 109 -62 200 -115 91 -53 173 -95 182 -95 19 2 641
358 664 380 12 13 14 72 14 392 -1 207 -4 381 -8 388 -7 11 -36 28 -377 225
-274 159 -288 166 -305 160z m284 -256 l267 -154 -58 -32 c-72 -41 -82 -47
-278 -160 -88 -51 -170 -98 -183 -105 -21 -12 -44 -1 -265 128 -133 77 -255
147 -270 155 l-28 14 23 13 c13 6 133 76 268 154 135 77 248 141 251 141 4 0
127 -69 273 -154z m-591 -390 c125 -72 227 -133 227 -136 0 -3 -14 -13 -31
-22 -17 -10 -27 -22 -24 -28 9 -15 18 -13 59 15 20 13 36 23 37 22 5 -11 2
-617 -3 -617 -4 0 -124 68 -267 151 -170 98 -261 157 -262 167 0 10 -2 148 -2
309 -2 288 -2 291 18 281 11 -6 122 -70 248 -142z m902 -168 c0 -172 -4 -291
-10 -297 -19 -18 -518 -302 -523 -297 -3 4 -6 489 -3 598 1 19 3 20 19 6 28
-25 62 -39 74 -32 7 5 0 16 -21 33 l-32 26 243 140 c190 110 244 137 249 125
3 -8 5 -144 4 -302z"/>
<path d="M768 892 c-28 -17 -38 -42 -17 -42 19 0 69 34 69 47 0 18 -20 16 -52
-5z"/>
<path d="M662 830 c-30 -19 -36 -40 -10 -40 18 0 68 41 63 51 -9 13 -16 11
-53 -11z"/>
<path d="M558 772 c-28 -17 -38 -42 -18 -42 22 0 70 31 70 45 0 19 -17 18 -52
-3z"/>
<path d="M452 708 c-22 -13 -30 -24 -24 -30 19 -19 90 21 77 43 -8 12 -15 11
-53 -13z"/>
<path d="M1160 897 c0 -13 50 -47 69 -47 21 0 11 26 -18 43 -35 20 -51 22 -51
4z"/>
<path d="M1265 840 c-6 -10 51 -50 73 -50 22 0 12 20 -20 40 -37 23 -44 24
-53 10z"/>
<path d="M1377 784 c-4 -4 -7 -11 -7 -15 0 -9 53 -39 70 -39 21 0 9 27 -17 41
-16 7 -31 15 -34 16 -3 2 -8 0 -12 -3z"/>
<path d="M1475 721 c-6 -11 47 -51 69 -51 26 0 18 17 -18 39 -38 24 -42 25
-51 12z"/>
</g>
</svg>
